<svg xmlns="http://www.w3.org/2000/svg" width="39" height="38" viewBox="0 0 39 38">
    <g fill="#FFF" fill-rule="nonzero">
        <path d="M8.1 17.4c-1.5-1.2-2.25-3-2.25-4.8 0-3.45 2.85-6.45 6.45-6.45S18.75 9 18.75 12.6v.75l-1.5-.15v-.45c0-2.7-2.25-4.95-4.95-4.95s-4.95 2.25-4.95 4.95c0 1.5.6 2.85 1.8 3.75l-1.05.9z"/>
        <path d="M30.75 29.7h-19.5c-3.45 0-6.45-2.85-6.45-6.45 0-2.25 1.05-4.2 3-5.4v-.45c0-3.45 2.85-6.45 6.45-6.45 1.2 0 2.4.3 3.45.9 1.5-3 4.5-4.95 7.95-4.95 4.8 0 8.85 3.9 8.85 8.85 0 .45 0 .9-.15 1.35 2.4.9 4.05 3.3 4.05 6 0 3.45-2.85 6.45-6.45 6.45h-.45c-.3.15-.45.15-.75.15zm-16.5-17.25c-2.7 0-4.95 2.25-4.95 4.95v.75l.15.45-.45.3c-1.65.9-2.55 2.55-2.55 4.35 0 2.7 2.25 4.95 4.95 4.95H32.1c2.7 0 4.95-2.25 4.95-4.95 0-2.25-1.5-4.2-3.6-4.8l-.75-.15.15-.75c.15-.6.15-1.2.15-1.8 0-4.05-3.3-7.35-7.35-7.35-3 0-5.85 1.95-6.9 4.8l-.3 1.05-.75-.75c-1.2-.6-2.4-1.05-3.45-1.05zM12.577 31.971l1.67.67-1.95 4.873-1.671-.67zM16.932 31.946l1.67.67-1.95 4.873-1.672-.669zM21.878 31.963l1.671.669-1.951 4.873-1.671-.669zM26.233 31.938l1.67.669-1.95 4.874-1.672-.67zM31.18 31.954l1.67.67-1.951 4.873-1.671-.67zM11.4 0h1.8v4.5h-1.8zM20.072 3.07l1.272 1.273-3.182 3.182-1.272-1.273zM3.215 4.247l1.272-1.273L7.67 6.156 6.397 7.429zM.125 12.962v-1.8h4.5v1.8z"/>
    </g>
</svg>
